<?xml version="1.0" encoding="UTF-8" standalone="no"?>
<!-- Created with Inkscape (http://www.inkscape.org/) -->

<svg
   width="210mm"
   height="210mm"
   viewBox="0 0 210 210"
   version="1.1"
   id="svg1"
   xml:space="preserve"
   inkscape:version="1.4.4 (dcaf3e7d9e, 2026-05-05)"
   sodipodi:docname="logoWhite.svg"
   xmlns:inkscape="http://www.inkscape.org/namespaces/inkscape"
   xmlns:sodipodi="http://sodipodi.sourceforge.net/DTD/sodipodi-0.dtd"
   xmlns="http://www.w3.org/2000/svg"
   xmlns:svg="http://www.w3.org/2000/svg"><sodipodi:namedview
     id="namedview1"
     pagecolor="#ffffff"
     bordercolor="#000000"
     borderopacity="0.25"
     inkscape:showpageshadow="2"
     inkscape:pageopacity="0.0"
     inkscape:pagecheckerboard="0"
     inkscape:deskcolor="#d1d1d1"
     inkscape:document-units="mm"
     inkscape:zoom="0.44409937"
     inkscape:cx="514.52449"
     inkscape:cy="460.48253"
     inkscape:window-width="1920"
     inkscape:window-height="937"
     inkscape:window-x="0"
     inkscape:window-y="0"
     inkscape:window-maximized="1"
     inkscape:current-layer="layer1" /><defs
     id="defs1" /><g
     inkscape:label="Layer 1"
     inkscape:groupmode="layer"
     id="layer1"><path
       style="fill:#ffffff;stroke-width:3.64129;fill-opacity:1"
       d="m 78.515151,207.83533 c -2.018001,-3.07988 -1.704522,-4.90147 3.477211,-20.20539 3.607678,-10.65507 15.159573,-37.97495 20.699608,-48.95394 3.11581,-6.17482 4.27688,-9.3348 3.42653,-9.32577 -0.38431,0.004 -1.74134,1.84664 -3.01568,4.09455 -5.74679,10.13745 -20.550756,31.54469 -21.814355,31.54469 -0.769659,0 -1.399383,-0.23596 -1.399383,-0.52431 0,-0.28839 3.297549,-5.29356 7.327893,-11.1226 7.602461,-10.99534 18.684535,-28.72593 18.684535,-29.89406 0,-0.3681 -0.7587,-0.45909 -1.68599,-0.20209 -0.92732,0.25671 -5.066849,5.96071 -9.199017,12.67518 -10.454485,16.9878 -17.23001,26.24683 -33.914201,46.34513 -7.948248,9.57473 -14.595873,17.84158 -14.772501,18.3708 -0.176638,0.52923 0.275027,0.96221 1.003688,0.96221 2.156225,0 9.937739,-8.74553 24.216645,-27.21672 5.69581,-7.36811 8.338948,-9.85817 8.338948,-7.85612 0,1.90137 -22.980745,31.97662 -26.463275,34.6329 -1.664986,1.26994 -5.045877,3.20193 -7.513093,4.2933 -4.022202,1.7792 -4.813326,1.84741 -7.65435,0.65984 -5.218113,-2.18117 -5.964817,-3.69799 -4.606949,-9.35822 0.769838,-3.20903 1.947244,-5.3938 3.430613,-6.36573 2.999951,-1.96564 4.270083,-0.9881 4.270083,3.28644 0,3.52309 0,3.52309 5.388457,-1.74283 7.085296,-6.9242 20.089107,-23.10506 28.233978,-35.13205 8.262299,-12.20035 17.763312,-28.41784 17.060434,-29.12075 -0.295308,-0.29568 -3.691136,0.64323 -7.54586,2.08602 -9.940932,3.72077 -10.862324,3.68979 -10.862324,-0.36551 0,-3.21428 0.175146,-3.36769 5.780544,-5.06656 3.179316,-0.96353 8.624045,-2.41425 12.099472,-3.22378 6.318907,-1.47192 6.318907,-1.47192 11.716898,-10.34825 13.87334,-22.812988 31.5413,-61.770327 43.13108,-95.102777 5.52725,-15.89651203 5.52725,-15.89651203 8.76971,-15.62210465 6.86496,0.58096734 9.94122,4.80220205 12.02921,16.50642765 2.56216,14.362401 1.58178,35.456267 -3.48679,75.022138 -2.56638,20.033746 -2.64423,19.175166 1.80674,19.927166 2.03147,0.34337 5.07704,1.46536 6.76798,2.49366 4.71383,2.86667 6.47243,9.57618 2.50998,9.57618 -1.10167,0 -1.36621,-0.54849 -0.92896,-1.92609 0.71944,-2.26678 -1.6384,-3.43035 -8.90441,-4.3942 -5.03182,-0.66752 -4.30804,-2.94791 -11.56178,36.42729 -0.43706,2.37259 -0.19881,2.66054 2.28178,2.75605 1.52341,0.0586 3.74532,0.0291 4.93755,-0.0688 1.19223,-0.0965 2.16769,0.26837 2.16769,0.81085 0,0.54255 -1.97769,6.53476 -4.39485,13.31604 -2.41716,6.78127 -5.33259,15.07609 -6.47872,18.43296 -2.56638,7.51641 -4.24177,8.61033 -9.8861,6.45472 -4.67534,-1.7855 -5.11648,-2.80193 -4.19581,-9.66783 0.35539,-2.6494 1.17169,-9.80286 1.81427,-15.89648 0.64258,-6.09366 2.23593,-18.2328 3.54078,-26.97589 1.30486,-8.74306 2.6194,-18.33989 2.92119,-21.32625 0.5344,-5.28781 0.48881,-5.42188 -1.74283,-5.12865 -1.26032,0.16568 -7.372,1.06555 -13.58149,1.99991 -11.28999,1.69877 -11.28999,1.69877 -13.99663,6.09205 -2.88754,4.68689 -10.49379,21.09529 -20.98463,45.26874 -8.676422,19.99256 -11.030682,26.39765 -12.395764,33.7245 -0.635004,3.40829 -1.61604,6.3507 -2.180075,6.5387 -0.564035,0.18789 -1.764495,-0.78597 -2.66768,-2.16442 z M 118.91238,100.88611 c 8.17862,-14.604672 15.84677,-30.524233 15.87692,-32.961601 0.0506,-4.088947 -2.70876,0.625027 -22.5289,38.487031 -2.9675,5.66876 -5.39548,10.56137 -5.39548,10.87241 0,0.31097 0.81864,0.12744 1.81919,-0.40804 1.00055,-0.53545 5.60328,-7.73089 10.22827,-15.9898 z m 2.71771,13.52767 c 3.41764,-0.7926 10.45821,-1.88124 15.6457,-2.41913 5.18748,-0.53793 9.56125,-1.1075 9.71943,-1.26567 0.75877,-0.75877 7.3002,-53.821512 8.36473,-67.853102 0.25125,-3.311569 0.0564,-6.268439 -0.43273,-6.570812 -0.48925,-0.302227 -6.46318,10.861158 -13.27544,24.807797 -6.81227,13.946675 -15.90875,31.81226 -20.21439,39.701287 -4.30568,7.88903 -7.82848,14.50052 -7.82848,14.6922 0,0.60969 1.65038,0.38492 8.02118,-1.09257 z m 37.92243,-17.419118 c 3.47918,-20.15956 5.11842,-34.614231 5.10946,-45.055038 -0.0109,-10.939665 -0.86972,-19.902656 -1.91044,-19.902656 -0.37789,0 -0.97754,4.227024 -1.33264,9.393392 -0.63671,9.264635 -2.50943,30.925923 -4.83268,55.89879 -1.55002,16.66118 0.0644,16.47912 2.9663,-0.334634 z"
       id="path1"
       sodipodi:nodetypes="ssscssssscsssssssssssssscsssssssssssssssscsssssssssssssssssssssssssscssssccssscc" /></g></svg>
